<svg xmlns="http://www.w3.org/2000/svg" width="40" height="41" viewBox="0 0 40 41" fill="none"><g clip-path="url(#clip0_4977_6617)"><path d="M24.0542 22.1709L24.1591 18.414C21.7916 16.5689 20.3906 13.7188 20.3906 10.7065C20.3906 5.3217 24.7715 0.940918 30.1562 0.940918C35.5411 0.940918 39.9219 5.3217 39.9219 10.7065C39.9219 16.0914 35.5411 20.4722 30.1562 20.4722C29.4445 20.4722 28.7352 20.395 28.0438 20.2425L24.0542 22.1709Z" fill="#ECC4FF"></path><path d="M30.1562 35.7065C31.4507 35.7065 32.5 34.6572 32.5 33.3628C32.5 32.0684 31.4507 31.019 30.1562 31.019C28.8618 31.019 27.8125 32.0684 27.8125 33.3628C27.8125 34.6572 28.8618 35.7065 30.1562 35.7065Z" fill="#ECC4FF"></path><path d="M31.3281 11.4878H33.6719V13.8315C33.6719 14.263 34.0216 14.6128 34.4531 14.6128C34.8845 14.6128 35.2344 14.263 35.2344 13.8315V7.58154C35.2344 7.15014 34.8845 6.80029 34.4531 6.80029C34.0216 6.80029 33.6719 7.15014 33.6719 7.58154V9.92529H32.1094V7.58154C32.1094 7.15014 31.7595 6.80029 31.3281 6.80029C30.8966 6.80029 30.5469 7.15014 30.5469 7.58154V10.7065C30.5469 11.138 30.8966 11.4878 31.3281 11.4878Z" fill="#011977"></path><path d="M25.8594 14.6128H28.2031C28.6345 14.6128 28.9844 14.263 28.9844 13.8315C28.9844 13.4001 28.6345 13.0503 28.2031 13.0503H26.6406V11.4878H28.2031C28.6345 11.4878 28.9844 11.138 28.9844 10.7065V7.58154C28.9844 7.15014 28.6345 6.80029 28.2031 6.80029H25.8594C25.4279 6.80029 25.0781 7.15014 25.0781 7.58154C25.0781 8.01295 25.4279 8.36279 25.8594 8.36279H27.4219V9.92529H25.8594C25.4279 9.92529 25.0781 10.2751 25.0781 10.7065V13.8315C25.0781 14.263 25.4279 14.6128 25.8594 14.6128Z" fill="#011977"></path><path d="M36.7969 25.9409H23.5156C22.0622 25.9409 20.8373 26.9384 20.4895 28.2847H15.7031V26.6626C17.5694 25.5802 18.8281 23.5617 18.8281 21.2534C18.8281 20.1761 18.8281 14.7312 18.8281 13.7534C18.8281 12.2887 17.6366 11.0972 16.1719 11.0972C16.0905 11.1069 15.4188 11.0276 14.6812 11.4581C14.2095 10.3297 13.0944 9.53467 11.7969 9.53467H4.76562C4.33414 9.53467 3.98438 9.88451 3.98438 10.3159V13.4409C3.98438 14.8944 4.9818 16.1192 6.32812 16.467V21.2534C6.32812 23.5617 7.58687 25.5802 9.45312 26.6626V28.2847H3.20312C1.48 28.2847 0.078125 29.6865 0.078125 31.4097V40.1597C0.078125 40.5911 0.427891 40.9409 0.859375 40.9409H39.1406C39.572 40.9409 39.9219 40.5911 39.9219 40.1597V29.0659C39.9219 27.3428 38.52 25.9409 36.7969 25.9409ZM16.0156 12.6597H16.1719C16.775 12.6597 17.2656 13.1503 17.2656 13.7534V15.0034H14.9219V13.7534C14.9219 13.1503 15.4125 12.6597 16.0156 12.6597ZM5.54688 13.4409V11.0972H11.7969C12.6584 11.0972 13.3594 11.7981 13.3594 12.6597V15.0034H7.10938C6.24781 15.0034 5.54688 14.3025 5.54688 13.4409ZM7.89062 21.2534V16.5659H17.2656V21.2534C17.2656 23.8381 15.1628 25.9409 12.5781 25.9409C9.99344 25.9409 7.89062 23.8381 7.89062 21.2534ZM14.1406 27.3057V28.8044L12.5948 30.3047L11.0156 28.6761V27.3057C12.037 27.5694 13.1193 27.5694 14.1406 27.3057ZM3.20312 29.8472H9.97469L12.0173 31.9536C12.3169 32.2625 12.8116 32.2718 13.1223 31.9703L15.3098 29.8472H20.3906V39.3784H5.54688V32.9722C5.54688 32.5408 5.19711 32.1909 4.76562 32.1909C4.33414 32.1909 3.98438 32.5408 3.98438 32.9722V36.2534H1.64062V31.4097C1.64062 30.5481 2.34156 29.8472 3.20312 29.8472ZM1.64062 37.8159H3.98438V39.3784H1.64062V37.8159ZM38.3594 39.3784H21.9531V29.0659C21.9531 28.2044 22.6541 27.5034 23.5156 27.5034H36.7969C37.6584 27.5034 38.3594 28.2044 38.3594 29.0659V39.3784Z" fill="#011977"></path></g><defs><clipPath id="clip0_4977_6617"><rect width="40" height="40" fill="white" transform="translate(0 0.940918)"></rect></clipPath></defs></svg>