<svg xmlns="http://www.w3.org/2000/svg" width="41" height="41" viewBox="0 0 41 41" fill="none"><g clip-path="url(#clip0_4977_6629)"><path d="M12.2207 8.66016V19.6595L16.5419 16.5167L20.863 19.6595V8.66016H12.2207Z" fill="#ECC4FF"></path><path d="M26.7037 36.4793H22.0909C20.9782 36.4793 20.0762 35.5773 20.0762 34.4646V29.0661C20.0762 27.9534 20.9782 27.0514 22.0909 27.0514H26.7037C27.8164 27.0514 28.7184 27.9534 28.7184 29.0661V34.4646C28.7184 35.5772 27.8163 36.4793 26.7037 36.4793Z" fill="#ECC4FF"></path><path d="M10.6486 36.4793H5.93455C5.0668 36.4793 4.36328 35.7759 4.36328 34.9079C4.36328 34.0402 5.0668 33.3367 5.93455 33.3367H10.6486C11.5164 33.3367 12.2199 34.0402 12.2199 34.9079C12.2199 35.7758 11.5164 36.4793 10.6486 36.4793Z" fill="#ECC4FF"></path><path d="M31.7987 17.6358C31.3666 17.6358 31.0162 17.9862 31.0162 18.4183V36.4948C31.0162 37.542 30.3185 38.3939 29.4608 38.3939H3.62032C2.76266 38.3939 2.06493 37.542 2.06493 36.4948V11.3418C2.06493 10.2946 2.76266 9.44262 3.62032 9.44262H24.2365C24.6687 9.44262 25.019 9.09223 25.019 8.66015C25.019 8.22807 24.6687 7.87769 24.2365 7.87769H3.62032C1.89975 7.87769 0.5 9.43174 0.5 11.3418V36.4948C0.5 38.4048 1.89975 39.9588 3.62032 39.9588H29.4608C31.1814 39.9588 32.5811 38.4048 32.5811 36.4948V18.4183C32.5811 17.9862 32.2307 17.6358 31.7987 17.6358Z" fill="#011977"></path><path d="M22.4355 30.194C22.4355 30.6261 22.7859 30.9764 23.218 30.9764H25.575C26.0071 30.9764 26.3574 30.6261 26.3574 30.194C26.3574 29.7619 26.0071 29.4115 25.575 29.4115H23.218C22.7859 29.4115 22.4355 29.7619 22.4355 30.194Z" fill="#011977"></path><path d="M25.575 32.5542H23.218C22.7859 32.5542 22.4355 32.9045 22.4355 33.3367C22.4355 33.7687 22.7859 34.1191 23.218 34.1191H25.575C26.0071 34.1191 26.3574 33.7687 26.3574 33.3367C26.3574 32.9045 26.007 32.5542 25.575 32.5542Z" fill="#011977"></path><path d="M31.8617 19.2011C36.6329 19.2011 40.5008 15.3332 40.5008 10.562C40.5008 5.79081 36.6329 1.92297 31.8617 1.92297C27.0905 1.92297 23.2227 5.79081 23.2227 10.562C23.2227 15.3332 27.0905 19.2011 31.8617 19.2011Z" fill="#ECC4FF"></path><path d="M32.253 7.47312H30.2136L30.4493 7.23736C30.7548 6.93181 30.7548 6.43643 30.4492 6.1308C30.1437 5.82516 29.6482 5.82524 29.3427 6.13087L27.7716 7.70207C27.4708 8.00238 27.4628 8.4994 27.7714 8.80887L29.3427 10.3801C29.6484 10.6858 30.1436 10.6857 30.4492 10.3801C30.7548 10.0746 30.7548 9.57913 30.4492 9.27349L30.2137 9.03797H32.253C33.5544 9.03797 34.6131 10.0966 34.6131 11.398C34.6131 12.6994 33.5544 13.7582 32.253 13.7582H29.1071C28.6751 13.7582 28.3247 14.1086 28.3247 14.5407C28.3247 14.9727 28.6751 15.3231 29.1071 15.3231H32.253C34.4173 15.3231 36.178 13.5623 36.178 11.398C36.1781 9.2339 34.4174 7.47312 32.253 7.47312Z" fill="#011977"></path></g><defs><clipPath id="clip0_4977_6629"><rect width="40" height="40" fill="white" transform="translate(0.5 0.940918)"></rect></clipPath></defs></svg>