<svg xmlns="http://www.w3.org/2000/svg" width="41" height="41" viewBox="0 0 41 41" fill="none"><g clip-path="url(#clip0_4977_6653)"><path d="M14.1102 24.2691L22.7347 18.1094L14.1102 11.9497V15.426H1.28125V20.7928H14.1102V24.2691Z" fill="#ECC4FF"></path><path d="M32.2855 12.3916H29.2109V20.6341H36.6213L35.1847 14.6766C34.8614 13.3361 33.663 12.3916 32.2855 12.3916Z" fill="#ECC4FF"></path><path d="M37.4134 19.8528H29.9928V8.03334C29.9928 5.95616 28.3042 4.26624 26.2287 4.26624H4.26414C2.18859 4.26624 0.5 5.95616 0.5 8.03334V29.3846C0.5 31.4618 2.18859 33.1518 4.26414 33.1518H5.47086C5.84891 35.6747 8.02898 37.6156 10.6534 37.6156C13.2777 37.6156 15.4578 35.6747 15.8359 33.1518H24.8873C25.2653 35.6747 27.4454 37.6156 30.0698 37.6156C32.6941 37.6156 34.8742 35.6747 35.2523 33.1518H36.7362C38.8115 33.1518 40.4999 31.462 40.4999 29.385V22.9417C40.5 21.2385 39.1154 19.8528 37.4134 19.8528ZM10.6534 36.0531C8.62531 36.0531 6.97531 34.4011 6.97531 32.3705C6.97531 30.34 8.62531 28.688 10.6534 28.688C12.6814 28.688 14.3314 30.34 14.3314 32.3705C14.3314 34.4011 12.6814 36.0531 10.6534 36.0531ZM24.8873 31.5893H15.8359C15.4578 29.0663 13.2777 27.1255 10.6534 27.1255C8.02898 27.1255 5.84891 29.0663 5.47086 31.5893H4.26414C3.05016 31.5893 2.0625 30.6003 2.0625 29.3846V8.03334C2.0625 6.81772 3.05016 5.82874 4.26414 5.82874H26.2288C27.4427 5.82874 28.4304 6.81772 28.4304 8.03334V27.3883C26.5802 27.9997 25.1829 29.6165 24.8873 31.5893ZM30.0698 36.0531C28.0418 36.0531 26.3918 34.4011 26.3918 32.3705C26.3918 30.34 28.0418 28.688 30.0698 28.688C32.0979 28.688 33.7479 30.34 33.7479 32.3705C33.7479 34.4011 32.0979 36.0531 30.0698 36.0531ZM38.9375 29.385C38.9375 30.6005 37.95 31.5893 36.7363 31.5893H35.2523C34.8743 29.0663 32.6942 27.1255 30.0698 27.1255C30.0441 27.1255 30.0185 27.1257 29.9929 27.126V21.4153H37.4135C38.2539 21.4153 38.9376 22.1001 38.9376 22.9417V29.385H38.9375Z" fill="#011977"></path><path d="M11.3748 32.0714C11.247 31.7645 10.9296 31.5679 10.5976 31.592C10.2726 31.6155 9.99258 31.8431 9.90258 32.1562C9.81274 32.4685 9.93258 32.8168 10.1981 33.0055C10.4616 33.1926 10.8173 33.1979 11.0866 33.0199C11.3947 32.8162 11.5141 32.4116 11.3748 32.0714Z" fill="#011977"></path><path d="M30.7911 32.0714C30.6632 31.7644 30.3458 31.5679 30.0138 31.592C29.6843 31.6158 29.4016 31.8497 29.3153 32.1684C29.2319 32.4765 29.3517 32.8157 29.6107 33.0026C29.8738 33.1925 30.2324 33.1991 30.5028 33.0198C30.8106 32.8158 30.9306 32.412 30.7911 32.0714Z" fill="#011977"></path></g><defs><clipPath id="clip0_4977_6653"><rect width="40" height="40" fill="white" transform="translate(0.5 0.940918)"></rect></clipPath></defs></svg>