<svg xmlns="http://www.w3.org/2000/svg" width="41" height="41" viewBox="0 0 41 41" fill="none"><g clip-path="url(#clip0_4977_6604)"><path d="M36.2896 4.6394H9.97711C7.65227 4.6394 5.76758 6.54245 5.76758 8.88995L5.93656 9.01831H31.7831C34.1187 9.01831 36.0121 10.9126 36.0121 13.2494V31.8713L36.2897 32.0822C38.6145 32.0822 40.4992 30.1792 40.4992 27.8317V8.89003C40.4991 6.54245 38.6145 4.6394 36.2896 4.6394Z" fill="#ECC4FF"></path><path d="M1.28125 13.7001H36.0129V18.4006H1.28125V13.7001Z" fill="#ECC4FF"></path><path d="M10.3372 31.684C12.7832 31.684 14.7662 29.6817 14.7662 27.2119C14.7662 24.742 12.7832 22.7397 10.3372 22.7397C7.89113 22.7397 5.9082 24.742 5.9082 27.2119C5.9082 29.6817 7.89113 31.684 10.3372 31.684Z" fill="#ECC4FF"></path><path d="M31.7829 8.23718H5.51133C2.74805 8.23718 0.5 10.4852 0.5 13.2484V32.2312C0.5 34.9944 2.74805 37.2425 5.51133 37.2425H31.7829C34.5461 37.2425 36.7941 34.9944 36.7941 32.2312V13.2484C36.7941 10.4852 34.5461 8.23718 31.7829 8.23718ZM35.2316 32.2313C35.2316 34.133 33.6845 35.6801 31.7828 35.6801H5.51133C3.60961 35.6801 2.0625 34.133 2.0625 32.2313V13.2485C2.0625 11.3469 3.60961 9.79976 5.51133 9.79976H31.7829C33.6845 9.79976 35.2316 11.3469 35.2316 13.2485V32.2313H35.2316Z" fill="#011977"></path><path d="M31.3856 25.506H22.0703C21.6389 25.506 21.2891 25.8557 21.2891 26.2872V31.6842C21.2891 32.1157 21.6389 32.4654 22.0703 32.4654H31.3855C31.817 32.4654 32.1668 32.1157 32.1668 31.6842V26.2872C32.1669 25.8557 31.817 25.506 31.3856 25.506ZM30.6044 30.9029H22.8516V27.0685H30.6044V30.9029Z" fill="#011977"></path><path d="M31.3871 21.9586H19.1172C18.6858 21.9586 18.3359 22.3084 18.3359 22.7399C18.3359 23.1714 18.6858 23.5211 19.1172 23.5211H31.3871C31.8185 23.5211 32.1684 23.1714 32.1684 22.7399C32.1684 22.3084 31.8185 21.9586 31.3871 21.9586Z" fill="#011977"></path></g><defs><clipPath id="clip0_4977_6604"><rect width="40" height="40" fill="white" transform="translate(0.5 0.940918)"></rect></clipPath></defs></svg>