<svg xmlns="http://www.w3.org/2000/svg" width="26" height="18" viewBox="0 0 26 18" fill="none"><g clip-path="url(#clip0_12752_2173)"><path d="M23.9474 0.677734H2.05263C0.889474 0.677734 0 1.56721 0 2.73037V15.0462C0 16.2093 0.957895 17.0988 2.05263 17.0988H23.9474C25.1105 17.0988 26 16.2093 26 15.0462V2.73037C26 1.56721 25.0421 0.677734 23.9474 0.677734Z" fill="#F3F5F6"></path><path d="M23.9474 1.36182C24.7 1.36182 25.3158 1.97761 25.3158 2.73024V15.046C25.3158 15.7987 24.7 16.4144 23.9474 16.4144H2.05263C1.29999 16.4144 0.684204 15.7987 0.684204 15.046V2.73024C0.684204 1.97761 1.29999 1.36182 2.05263 1.36182H23.9474Z" fill="white"></path><path d="M16.3526 6.35653C16.4894 5.67232 16.3526 5.19337 15.9421 4.78284C15.5315 4.3039 14.7789 4.09863 13.821 4.09863H11.0158C10.8105 4.09863 10.6737 4.23547 10.6052 4.44074L9.57892 11.3513C9.57892 11.4881 9.64734 11.6249 9.78418 11.6249H11.6315L11.9052 9.29863L13.1368 7.79337L16.3526 6.35653Z" fill="#003087"></path><path d="M16.3526 6.35645L16.2158 6.49329C15.8737 8.40908 14.7105 9.09329 13.0684 9.09329H12.3158C12.1105 9.09329 11.9737 9.23013 11.9053 9.43539L11.4948 12.1038L11.3579 12.788C11.3579 12.9249 11.4263 13.0617 11.5632 13.0617H13C13.2053 13.0617 13.3421 12.9249 13.3421 12.788V12.7196L13.6158 11.0775V11.0091C13.6158 10.8722 13.8211 10.7354 13.9579 10.7354H14.1632C15.6 10.7354 16.6948 10.188 16.9684 8.54592C17.1053 7.86171 17.0369 7.31434 16.6948 6.90381C16.6263 6.56171 16.4895 6.42487 16.3526 6.35645Z" fill="#3086C8"></path><path d="M15.9421 6.21991C15.8737 6.15149 15.8053 6.15149 15.7369 6.15149C15.6684 6.15149 15.6 6.15149 15.5316 6.08307C15.3263 6.01465 15.0526 6.01465 14.779 6.01465H12.7263C12.6579 6.01465 12.5895 6.01465 12.5895 6.08307C12.4526 6.15149 12.3842 6.21991 12.3842 6.35675L11.9053 9.36728V9.4357C11.9053 9.23044 12.1105 9.0936 12.3158 9.0936H13.2053C14.9158 9.0936 16.0105 8.40938 16.3526 6.4936V6.35675C16.2842 6.28833 16.1474 6.21991 16.0105 6.21991H15.9421Z" fill="#012169"></path></g><defs><clipPath id="clip0_12752_2173"><rect width="26" height="16.4211" fill="white" transform="translate(0 0.677734)"></rect></clipPath></defs></svg>