<svg xmlns="http://www.w3.org/2000/svg" width="26" height="18" viewBox="0 0 26 18" fill="none"><g clip-path="url(#clip0_12752_2153)"><path d="M23.528 0.677734H2.47194C2.38423 0.677734 2.29636 0.677734 2.2088 0.678199C2.13489 0.678819 2.06112 0.679594 1.9872 0.681609C1.82619 0.685948 1.66379 0.695556 1.50479 0.724069C1.34534 0.751388 1.19084 0.802312 1.0464 0.875162C0.756017 1.02286 0.519989 1.25889 0.372293 1.54927C0.299313 1.69377 0.248384 1.84838 0.221201 2.00797C0.192377 2.16712 0.182924 2.32937 0.178585 2.49023C0.176696 2.56408 0.17556 2.63795 0.175176 2.71183C0.174866 2.79923 0.174866 2.88694 0.174866 2.97481V14.8016C0.174866 14.8894 0.174866 14.977 0.175176 15.0648C0.175641 15.1386 0.17657 15.2125 0.178585 15.2864C0.182924 15.447 0.192532 15.6094 0.221201 15.7684C0.248328 15.928 0.299205 16.0826 0.372138 16.2271C0.445466 16.3714 0.541181 16.5032 0.655728 16.6176C0.770078 16.7322 0.90189 16.8279 1.04624 16.9012C1.193 16.9761 1.34332 17.0236 1.50495 17.0526C1.66379 17.081 1.82619 17.0906 1.9872 17.0949C2.06112 17.0966 2.13489 17.0975 2.2088 17.098C2.29636 17.0986 2.38423 17.0986 2.47194 17.0986H23.528C23.6156 17.0986 23.7035 17.0986 23.791 17.098C23.8648 17.0977 23.9386 17.0966 24.0128 17.0949C24.1735 17.0906 24.3359 17.081 24.4952 17.0526C24.6547 17.0253 24.8092 16.9742 24.9536 16.9012C25.2438 16.7533 25.4798 16.5173 25.6277 16.2271C25.7025 16.0803 25.75 15.93 25.7786 15.7684C25.8075 15.6094 25.8167 15.447 25.8211 15.2864C25.8231 15.2125 25.8242 15.1386 25.8245 15.0648C25.8251 14.977 25.8251 14.8894 25.8251 14.8016V2.97496C25.8251 2.8871 25.8251 2.79938 25.8245 2.71167C25.8242 2.63785 25.8231 2.56403 25.8211 2.49023C25.8167 2.32937 25.8075 2.16712 25.7786 2.00797C25.7516 1.84836 25.7008 1.69372 25.6277 1.54927C25.4799 1.25894 25.2439 1.02293 24.9536 0.875162C24.8091 0.802387 24.6546 0.751517 24.4952 0.724224C24.3359 0.695556 24.1735 0.686103 24.0128 0.681764C23.9389 0.679886 23.865 0.67875 23.791 0.678354C23.7035 0.677734 23.6156 0.677734 23.528 0.677734Z" fill="#F3F5F6"></path><path d="M23.5281 1.2251L23.7872 1.22556C23.8572 1.22603 23.9274 1.2268 23.9979 1.22866C24.1208 1.23207 24.2643 1.23873 24.3982 1.26275C24.5144 1.28368 24.6121 1.31544 24.7057 1.36317C24.893 1.45841 25.0452 1.61075 25.1402 1.79816C25.1876 1.89114 25.2192 1.98815 25.2401 2.10546C25.264 2.23781 25.2707 2.38177 25.2739 2.50528C25.2759 2.57501 25.2769 2.64475 25.277 2.71603C25.2778 2.80235 25.2778 2.88851 25.2778 2.97498V14.8017C25.2778 14.8882 25.2778 14.9744 25.2772 15.0624C25.2769 15.1321 25.2759 15.2019 25.2741 15.2716C25.2707 15.3949 25.264 15.5389 25.2398 15.6728C25.2223 15.7793 25.1886 15.8825 25.1399 15.9789C25.0446 16.1663 24.8922 16.3187 24.7047 16.4139C24.6117 16.4613 24.5144 16.493 24.3993 16.5138C24.2628 16.5381 24.1131 16.5448 24.0004 16.5479C23.9296 16.5494 23.8591 16.5505 23.7867 16.5508C23.7007 16.5515 23.6142 16.5515 23.5281 16.5515H2.46855C2.38332 16.5515 2.29809 16.5515 2.2113 16.5508C2.14156 16.5505 2.07182 16.5496 2.0021 16.5481C1.8868 16.545 1.73711 16.5381 1.60167 16.514C1.49458 16.4961 1.39082 16.4622 1.2939 16.4132C1.20094 16.366 1.11609 16.3043 1.04255 16.2304C0.968767 16.1567 0.90715 16.0718 0.859994 15.9789C0.811296 15.882 0.777544 15.7783 0.759886 15.6713C0.735711 15.5375 0.728893 15.3942 0.725793 15.2717C0.724043 15.2018 0.723009 15.1318 0.722694 15.0618L0.722229 14.8561V2.92074L0.722539 2.71541C0.722859 2.64531 0.723892 2.57521 0.725638 2.50512C0.729048 2.38239 0.735711 2.23905 0.760041 2.10422C0.777734 1.99743 0.811486 1.89393 0.860149 1.79723C0.907259 1.70456 0.968626 1.61995 1.04301 1.54572C1.11673 1.47188 1.20167 1.41017 1.29468 1.36286C1.39135 1.31429 1.49479 1.28055 1.60151 1.26275C1.73556 1.23873 1.87921 1.23207 2.00225 1.22866C2.0723 1.2268 2.1425 1.22603 2.21208 1.22556L2.47196 1.2251H23.5281Z" fill="white"></path><path d="M6.91722 6.22083C7.13479 5.94887 7.28232 5.58361 7.24342 5.21045C6.92512 5.22626 6.53677 5.42043 6.31176 5.69271C6.10984 5.92578 5.93116 6.30622 5.97765 6.66373C6.33501 6.69472 6.69205 6.48521 6.91722 6.22083Z" fill="black"></path><path d="M7.23937 6.73353C6.72023 6.70253 6.2792 7.02796 6.03141 7.02796C5.78346 7.02796 5.40395 6.74902 4.99344 6.75662C4.45927 6.76437 3.96368 7.06655 3.69249 7.54695C3.13492 8.50774 3.54527 9.93343 4.08766 10.716C4.35095 11.1034 4.66832 11.5296 5.08642 11.5143C5.48158 11.4988 5.6364 11.2586 6.11648 11.2586C6.59641 11.2586 6.73588 11.5143 7.15414 11.5065C7.58774 11.4988 7.85893 11.1191 8.12222 10.7317C8.4244 10.29 8.54791 9.86386 8.55566 9.84061C8.54791 9.83286 7.71946 9.51502 7.71171 8.56198C7.70396 7.7639 8.36226 7.38423 8.39325 7.36083C8.02149 6.81101 7.44067 6.74902 7.23922 6.73353" fill="black"></path><path d="M12.4131 5.65381C13.5409 5.65381 14.3265 6.43128 14.3265 7.56315C14.3265 8.69906 13.5248 9.48056 12.3849 9.48056H11.1362V11.4666H10.2339V5.65381H12.4131ZM11.1362 8.72323H12.1713C12.957 8.72323 13.4039 8.30033 13.4039 7.56718C13.4039 6.83419 12.9569 6.41516 12.1754 6.41516H11.1362V8.72323Z" fill="black"></path><path d="M14.5502 10.2622C14.5502 9.51694 15.1182 9.09001 16.1654 9.02554L17.2893 8.95704V8.63471C17.2893 8.16361 16.9792 7.90575 16.4273 7.90575C15.9721 7.90575 15.6417 8.13928 15.5735 8.49772H14.7596C14.7839 7.74458 15.4927 7.19678 16.4515 7.19678C17.4827 7.19678 18.1554 7.73653 18.1554 8.57443V11.4666H17.3217V10.7697H17.3015C17.0638 11.2248 16.54 11.5107 15.9721 11.5107C15.1343 11.5107 14.5502 11.0114 14.5502 10.2622ZM17.2893 9.88762V9.56126L16.2863 9.62573C15.7222 9.66199 15.4284 9.87135 15.4284 10.2378C15.4284 10.5924 15.7345 10.8221 16.2138 10.8221C16.8259 10.8221 17.2893 10.4312 17.2893 9.88762Z" fill="black"></path><path d="M18.922 13.0212V12.3245C18.9784 12.3324 19.1153 12.3405 19.1878 12.3405C19.5865 12.3405 19.8121 12.1715 19.9491 11.7362L20.0297 11.4785L18.503 7.24902H19.4455L20.509 10.6809H20.5292L21.5926 7.24902H22.511L20.9279 11.6919C20.5653 12.7111 20.1504 13.0456 19.2724 13.0456C19.2039 13.0456 18.9823 13.0375 18.922 13.0212Z" fill="black"></path></g><defs><clipPath id="clip0_12752_2153"><rect width="26" height="16.4211" fill="white" transform="translate(0 0.677734)"></rect></clipPath></defs></svg>