<svg xmlns="http://www.w3.org/2000/svg" width="26" height="18" viewBox="0 0 26 18" fill="none"><g clip-path="url(#clip0_12752_2143)"><path d="M23.9474 0.677734H2.05263C0.889474 0.677734 0 1.56721 0 2.73037V15.0462C0 16.2093 0.957895 17.0988 2.05263 17.0988H23.9474C25.1105 17.0988 26 16.2093 26 15.0462V2.73037C26 1.56721 25.0421 0.677734 23.9474 0.677734Z" fill="#F3F5F6"></path><path d="M23.9474 1.36182C24.7 1.36182 25.3158 1.97761 25.3158 2.73024V15.046C25.3158 15.7987 24.7 16.4144 23.9474 16.4144H2.05263C1.29999 16.4144 0.684204 15.7987 0.684204 15.046V2.73024C0.684204 1.97761 1.29999 1.36182 2.05263 1.36182H23.9474Z" fill="white"></path><path d="M19.3632 7.58821H19.1579C18.8842 8.27242 18.679 8.61452 18.4737 9.64084H19.7737C19.5684 8.61452 19.5684 8.13558 19.3632 7.58821ZM21.3474 11.6251H20.1842C20.1158 11.6251 20.1158 11.6251 20.0474 11.5566L19.9106 10.9408L19.8421 10.804H18.2C18.1316 10.804 18.0632 10.804 18.0632 10.9408L17.8579 11.5566C17.8579 11.6251 17.7895 11.6251 17.7895 11.6251H16.3527L16.4895 11.2829L18.4737 6.63031C18.4737 6.28821 18.679 6.15137 19.0211 6.15137H20.0474C20.1158 6.15137 20.1842 6.15137 20.1842 6.28821L21.1421 10.7356C21.2106 11.0093 21.279 11.2145 21.279 11.4882C21.3474 11.5566 21.3474 11.5566 21.3474 11.6251ZM12.179 11.4198L12.4527 10.1882C12.5211 10.1882 12.5895 10.2566 12.5895 10.2566C13.0684 10.4619 13.5474 10.5987 14.0263 10.5303C14.1632 10.5303 14.3685 10.4619 14.5053 10.3935C14.8474 10.2566 14.8474 9.91452 14.5737 9.64084C14.4369 9.504 14.2316 9.43558 14.0263 9.29874C13.7527 9.16189 13.479 9.02505 13.2737 8.81979C12.4527 8.13558 12.7263 7.17768 13.2053 6.69874C13.6158 6.42505 13.8211 6.15137 14.3684 6.15137C15.1895 6.15137 16.079 6.15137 16.4895 6.28821H16.5579C16.4895 6.69874 16.4211 7.04084 16.2842 7.45137C15.9421 7.31452 15.6 7.17768 15.2579 7.17768C15.0527 7.17768 14.8474 7.17768 14.6421 7.2461C14.5053 7.2461 14.4369 7.31453 14.3684 7.38295C14.2316 7.51979 14.2316 7.72505 14.3684 7.86189L14.7106 8.13558C14.9842 8.27242 15.2579 8.40926 15.4632 8.5461C15.8053 8.75137 16.1474 9.09347 16.2158 9.504C16.3527 10.1198 16.1474 10.6672 15.6 11.0777C15.2579 11.3514 15.1211 11.4882 14.6421 11.4882C13.6842 11.4882 12.9316 11.5566 12.3158 11.3514C12.2474 11.4882 12.2474 11.4882 12.179 11.4198ZM9.78424 11.6251C9.85266 11.1461 9.85266 11.1461 9.92108 10.9408C10.2632 9.43558 10.6053 7.86189 10.879 6.35663C10.9474 6.21979 10.9474 6.15137 11.0842 6.15137H12.3158C12.179 6.97242 12.0421 7.58821 11.8369 8.34084C11.6316 9.36716 11.4263 10.3935 11.1527 11.4198C11.1527 11.5566 11.0842 11.5566 10.9474 11.5566L9.78424 11.6251ZM3.42108 6.28821C3.42108 6.21979 3.55792 6.15137 3.62634 6.15137H5.95266C6.29477 6.15137 6.56845 6.35663 6.63687 6.69874L7.25266 9.70926C7.25266 9.77768 7.25266 9.77768 7.32108 9.8461C7.32108 9.77768 7.3895 9.77768 7.3895 9.77768L8.82634 6.28821C8.75792 6.21979 8.82634 6.15137 8.89477 6.15137H10.3316C10.3316 6.21979 10.3316 6.21979 10.2632 6.28821L8.14213 11.2829C8.07371 11.4198 8.07371 11.4882 8.00529 11.5566C7.93687 11.6251 7.80003 11.5566 7.66319 11.5566H6.63687C6.56845 11.5566 6.50003 11.5566 6.50003 11.4198L5.40529 7.17768C5.26845 7.04084 5.06319 6.83558 4.7895 6.76716C4.37898 6.56189 3.62634 6.42505 3.4895 6.42505L3.42108 6.28821Z" fill="#142688"></path></g><defs><clipPath id="clip0_12752_2143"><rect width="26" height="16.4211" fill="white" transform="translate(0 0.677734)"></rect></clipPath></defs></svg>