<svg xmlns="http://www.w3.org/2000/svg" width="26" height="18" viewBox="0 0 26 18" fill="none"><g clip-path="url(#clip0_12752_2179)"><path d="M23.9474 0.677734H2.05263C0.889474 0.677734 0 1.56721 0 2.73037V15.0462C0 16.2093 0.957895 17.0988 2.05263 17.0988H23.9474C25.1105 17.0988 26 16.2093 26 15.0462V2.73037C26 1.56721 25.0421 0.677734 23.9474 0.677734Z" fill="#F3F5F6"></path><path d="M23.9474 1.36182C24.7 1.36182 25.3158 1.97761 25.3158 2.73024V15.046C25.3158 15.7987 24.7 16.4144 23.9474 16.4144H2.05263C1.29999 16.4144 0.684204 15.7987 0.684204 15.046V2.73024C0.684204 1.97761 1.29999 1.36182 2.05263 1.36182H23.9474Z" fill="#006FCF"></path><path d="M6.13803 7.70316L6.66761 8.98674H5.61255L6.13803 7.70316ZM17.1367 7.75652H15.0998V8.32237H17.1039V9.1701H15.1039V9.80095H17.1408V10.3066L18.5619 8.77052L17.1408 7.16947L17.1367 7.75652ZM7.51466 6.15547H10.2481L10.855 7.47942L11.4174 6.15137H18.5127L19.2502 6.96558L20.0131 6.15137H23.272L20.8643 8.78695L23.2474 11.4061H19.9399L19.2023 10.5919L18.4326 11.4061H6.86261L6.52461 10.5919H5.75145L5.41276 11.4061H2.73682L4.98513 6.15137H7.33197L7.51466 6.15547ZM13.442 6.89305H11.91L10.8837 9.31242L9.77187 6.89305H8.25155V10.1841L6.84208 6.89305H5.47845L3.84866 10.6644H4.91261L5.25061 9.85021H7.02682L7.36482 10.6644H9.22587V7.97205L10.4239 10.6685H11.2381L12.4287 7.98026V10.6692H13.4262L13.4427 6.89237L13.442 6.89305ZM19.8325 8.78695L21.5642 6.89305H20.3176L19.2222 8.074L18.163 6.89305H14.1303V10.6685H18.1056L19.2099 9.47937L20.269 10.6685H21.5519L19.8332 8.78695H19.8325Z" fill="white"></path></g><defs><clipPath id="clip0_12752_2179"><rect width="26" height="16.4211" fill="white" transform="translate(0 0.677734)"></rect></clipPath></defs></svg>