<svg xmlns="http://www.w3.org/2000/svg" width="26" height="18" viewBox="0 0 26 18" fill="none"><g clip-path="url(#clip0_12752_2147)"><path d="M23.9474 0.677734H2.05263C0.889474 0.677734 0 1.56721 0 2.73037V15.0462C0 16.2093 0.957895 17.0988 2.05263 17.0988H23.9474C25.1105 17.0988 26 16.2093 26 15.0462V2.73037C26 1.56721 25.0421 0.677734 23.9474 0.677734Z" fill="#F3F5F6"></path><path d="M23.9474 1.36182C24.7 1.36182 25.3158 1.97761 25.3158 2.73024V15.046C25.3158 15.7987 24.7 16.4144 23.9474 16.4144H2.05263C1.29999 16.4144 0.684204 15.7987 0.684204 15.046V2.73024C0.684204 1.97761 1.29999 1.36182 2.05263 1.36182H23.9474Z" fill="white"></path><path d="M10.2632 13.6776C12.9083 13.6776 15.0526 11.5333 15.0526 8.88811C15.0526 6.24295 12.9083 4.09863 10.2632 4.09863C7.61801 4.09863 5.47369 6.24295 5.47369 8.88811C5.47369 11.5333 7.61801 13.6776 10.2632 13.6776Z" fill="#EB001B"></path><path d="M15.7369 13.6776C18.382 13.6776 20.5263 11.5333 20.5263 8.88811C20.5263 6.24295 18.382 4.09863 15.7369 4.09863C13.0917 4.09863 10.9474 6.24295 10.9474 8.88811C10.9474 11.5333 13.0917 13.6776 15.7369 13.6776Z" fill="#F79E1B"></path><path d="M15.0527 8.88828C15.0527 7.24618 14.2316 5.80933 13 4.98828C11.7684 5.87775 10.9474 7.3146 10.9474 8.88828C10.9474 10.462 11.7684 11.9672 13 12.7883C14.2316 11.9672 15.0527 10.5304 15.0527 8.88828Z" fill="#FF5F00"></path></g><defs><clipPath id="clip0_12752_2147"><rect width="26" height="16.4211" fill="white" transform="translate(0 0.677734)"></rect></clipPath></defs></svg>