<svg xmlns="http://www.w3.org/2000/svg" width="26" height="18" viewBox="0 0 26 18" fill="none"><g clip-path="url(#clip0_12752_2164)"><path d="M23.9474 0.677734H2.05263C0.889474 0.677734 0 1.56721 0 2.73037V15.0462C0 16.2093 0.957895 17.0988 2.05263 17.0988H23.9474C25.1105 17.0988 26 16.2093 26 15.0462V2.73037C26 1.56721 25.0421 0.677734 23.9474 0.677734Z" fill="#F3F5F6"></path><path d="M23.9474 1.36182C24.7 1.36182 25.3158 1.97761 25.3158 2.73024V15.046C25.3158 15.7987 24.7 16.4144 23.9474 16.4144H2.05263C1.29999 16.4144 0.684204 15.7987 0.684204 15.046V2.73024C0.684204 1.97761 1.29999 1.36182 2.05263 1.36182H23.9474Z" fill="white"></path><path d="M2.44262 5.57673H1.36841V9.33989H2.44262C3.01051 9.33989 3.42104 9.20305 3.78367 8.90884C4.21472 8.55305 4.46788 8.01937 4.46788 7.46516C4.46104 6.34989 3.63314 5.57673 2.44262 5.57673ZM3.30472 8.40937C3.07209 8.61463 2.77788 8.71042 2.29893 8.71042H2.10051V6.21989H2.29893C2.77104 6.21989 3.05841 6.302 3.30472 6.52094C3.55788 6.74673 3.70841 7.09568 3.70841 7.45831C3.70841 7.82094 3.55788 8.18358 3.30472 8.40937ZM4.80314 5.57673H5.53525V9.33989H4.80314V5.57673ZM7.32788 7.02042C6.88999 6.85621 6.75999 6.74673 6.75999 6.54831C6.75999 6.30884 6.99262 6.13094 7.30736 6.13094C7.5263 6.13094 7.71104 6.21989 7.89578 6.43884L8.27893 5.93937C7.9642 5.66568 7.58788 5.522 7.17051 5.522C6.50683 5.522 5.99367 5.98726 5.99367 6.60305C5.99367 7.12305 6.23314 7.38989 6.91736 7.63621C7.20472 7.73884 7.34841 7.80726 7.42367 7.84831C7.56736 7.9441 7.64262 8.08095 7.64262 8.23831C7.64262 8.54621 7.40314 8.772 7.07472 8.772C6.72578 8.772 6.44525 8.5941 6.2742 8.27252L5.80209 8.73095C6.13735 9.23042 6.54788 9.44937 7.10209 9.44937C7.86157 9.44937 8.40209 8.94305 8.40209 8.21094C8.41578 7.602 8.16262 7.32831 7.32788 7.02042ZM8.64157 7.46516C8.64157 8.57358 9.51051 9.42884 10.6258 9.42884C10.9405 9.42884 11.2142 9.36726 11.5426 9.20989V8.34779C11.2484 8.642 10.9884 8.75831 10.66 8.75831C9.92104 8.75831 9.3942 8.22463 9.3942 7.45831C9.3942 6.73305 9.93472 6.16516 10.6258 6.16516C10.9747 6.16516 11.2416 6.28831 11.5426 6.58937V5.72726C11.221 5.56305 10.9542 5.49463 10.6395 5.49463C9.53788 5.49463 8.64157 6.37042 8.64157 7.46516ZM17.3721 8.10831L16.3663 5.57673H15.5658L17.16 9.43568H17.5568L19.1784 5.57673H18.3847L17.3721 8.10831ZM19.5137 9.33989H21.5937V8.70358H20.2458V7.69094H21.5458V7.05463H20.2458V6.21989H21.5937V5.57673H19.5137V9.33989ZM24.5016 6.692C24.5016 5.98726 24.0158 5.58358 23.1674 5.58358H22.0795V9.34673H22.8116V7.83463H22.9074L23.92 9.34673H24.8231L23.6395 7.75937C24.1937 7.64305 24.5016 7.26673 24.5016 6.692ZM23.0237 7.31463H22.8116V6.172H23.0374C23.4958 6.172 23.7421 6.36358 23.7421 6.73305C23.7421 7.10937 23.4958 7.31463 23.0237 7.31463Z" fill="#231F20"></path><path d="M13.7937 9.47666C14.3256 9.47666 14.8356 9.26538 15.2117 8.88929C15.5878 8.5132 15.7991 8.00311 15.7991 7.47124C15.7991 6.93937 15.5878 6.42928 15.2117 6.05319C14.8356 5.67711 14.3256 5.46582 13.7937 5.46582C13.2618 5.46582 12.7517 5.67711 12.3756 6.05319C11.9996 6.42928 11.7883 6.93937 11.7883 7.47124C11.7883 8.00311 11.9996 8.5132 12.3756 8.88929C12.7517 9.26538 13.2618 9.47666 13.7937 9.47666Z" fill="url(#paint0_linear_12752_2164)"></path><path opacity="0.65" d="M13.7937 9.47666C14.3256 9.47666 14.8356 9.26538 15.2117 8.88929C15.5878 8.5132 15.7991 8.00311 15.7991 7.47124C15.7991 6.93937 15.5878 6.42928 15.2117 6.05319C14.8356 5.67711 14.3256 5.46582 13.7937 5.46582C13.2618 5.46582 12.7517 5.67711 12.3756 6.05319C11.9996 6.42928 11.7883 6.93937 11.7883 7.47124C11.7883 8.00311 11.9996 8.5132 12.3756 8.88929C12.7517 9.26538 13.2618 9.47666 13.7937 9.47666Z" fill="url(#paint1_linear_12752_2164)"></path><path d="M25.0216 5.81357C25.0216 5.74515 24.9737 5.71094 24.8984 5.71094H24.7889V6.03936H24.871V5.90936L24.9668 6.03936H25.0626L24.9532 5.90252C24.9942 5.89567 25.0216 5.86146 25.0216 5.81357ZM24.8847 5.86146H24.871V5.77252H24.8847C24.9258 5.77252 24.9463 5.7862 24.9463 5.81357C24.9463 5.84778 24.9258 5.86146 24.8847 5.86146Z" fill="#231F20"></path><path d="M24.9121 5.5874C24.7548 5.5874 24.6248 5.7174 24.6248 5.87477C24.6248 6.03214 24.7548 6.16214 24.9121 6.16214C25.0695 6.16214 25.1995 6.03214 25.1995 5.87477C25.1995 5.7174 25.0695 5.5874 24.9121 5.5874ZM24.9121 6.11424C24.789 6.11424 24.6795 6.01161 24.6795 5.87477C24.6795 5.74477 24.7821 5.6353 24.9121 5.6353C25.0353 5.6353 25.1379 5.74477 25.1379 5.87477C25.1379 6.00477 25.0353 6.11424 24.9121 6.11424Z" fill="#231F20"></path><path d="M25.3158 9.56152C25.3158 9.56152 18.5353 14.275 6.14148 16.4146H23.9467C24.3077 16.4146 24.6541 16.2719 24.9105 16.0177C25.1668 15.7634 25.3122 15.4181 25.3151 15.0571L25.3315 12.9908L25.3158 9.56221V9.56152Z" fill="#F48120"></path></g><defs><linearGradient id="paint0_linear_12752_2164" x1="14.818" y1="9.0764" x2="13.4324" y2="6.90677" gradientUnits="userSpaceOnUse"><stop stop-color="#F89F20"></stop><stop offset="0.25" stop-color="#F79A20"></stop><stop offset="0.533" stop-color="#F68D20"></stop><stop offset="0.62" stop-color="#F58720"></stop><stop offset="0.723" stop-color="#F48120"></stop><stop offset="1" stop-color="#F37521"></stop></linearGradient><linearGradient id="paint1_linear_12752_2164" x1="14.5997" y1="9.04698" x2="12.5744" y2="5.08814" gradientUnits="userSpaceOnUse"><stop stop-color="#F58720"></stop><stop offset="0.359" stop-color="#E16F27"></stop><stop offset="0.703" stop-color="#D4602C"></stop><stop offset="0.982" stop-color="#D05B2E"></stop></linearGradient><clipPath id="clip0_12752_2164"><rect width="26" height="16.4211" fill="white" transform="translate(0 0.677734)"></rect></clipPath></defs></svg>