<svg width="136" height="26" viewBox="0 0 136 26" fill="none" xmlns="http://www.w3.org/2000/svg">
<path d="M10.8866 0.147461C11.2921 0.147461 11.587 0.282622 11.7713 0.540656C11.9494 0.786402 12.0416 1.06901 12.0416 1.37619C12.0416 1.70795 11.9494 2.00285 11.7713 2.26088C11.587 2.50663 11.2921 2.6295 10.8866 2.6295H7.2741V24.6484C7.2741 25.0416 7.13894 25.3365 6.88091 25.5331C6.63516 25.7113 6.34641 25.8034 6.02079 25.8034C5.70747 25.8034 5.41871 25.7113 5.16068 25.5331C4.91493 25.3365 4.79206 25.0416 4.79206 24.6484V2.6295H1.10586C0.731097 2.6295 0.454631 2.50663 0.270321 2.26088C0.0921554 2.00285 0 1.70795 0 1.37619C0 1.06901 0.0921554 0.786402 0.270321 0.540656C0.454631 0.282622 0.731097 0.147461 1.10586 0.147461H10.8866Z" fill="white"/>
<path d="M21.8107 10.6654C20.9076 10.6654 20.1519 10.9972 19.5498 11.6484C18.9416 12.2873 18.6406 13.0614 18.6406 13.9584V20.4215C18.6406 21.2755 18.9416 22.0128 19.5498 22.6333C20.1703 23.2415 20.926 23.5425 21.8107 23.5425C22.5295 23.5425 23.2483 23.3091 23.9733 22.8299C24.5446 22.4551 24.9931 22.3814 25.3249 22.6087C25.6505 22.8237 25.8287 23.1493 25.8655 23.5917C25.9147 24.034 25.7734 24.3903 25.4478 24.6484H25.4969C25.0361 25.0416 24.4893 25.3733 23.8504 25.6314C23.2115 25.8771 22.5295 26 21.8107 26C20.8277 26 19.9 25.7542 19.0338 25.2627C18.1798 24.7713 17.4917 24.1016 16.9695 23.2476C16.4411 22.3998 16.1831 21.4537 16.1831 20.4215V13.9584C16.1831 12.914 16.4289 11.9617 16.9203 11.1077C17.4241 10.2599 18.1061 9.57183 18.96 9.04347C19.8079 8.52126 20.7601 8.25708 21.8107 8.25708C22.8736 8.25708 23.8135 8.50283 24.6368 8.99432C25.4723 9.47353 26.1358 10.137 26.6273 10.9849C27.1188 11.8204 27.3646 12.7727 27.3646 13.8355C27.3646 14.9045 27.1065 15.8629 26.6028 16.7108C26.1113 17.5463 25.4355 18.2037 24.5876 18.6767C23.7521 19.1559 22.8244 19.3894 21.8107 19.3894H19.5498V17.0057H21.8107C22.677 17.0057 23.4203 16.7046 24.047 16.0964C24.6675 15.4943 24.9808 14.7386 24.9808 13.8355C24.9808 12.9693 24.6675 12.2259 24.047 11.5992C23.4203 10.9787 22.677 10.6654 21.8107 10.6654Z" fill="white"/>
<path d="M34.275 17.9149V24.6484C34.275 24.9924 34.1398 25.2751 33.8818 25.4839C33.6176 25.6805 33.3288 25.7788 33.0217 25.7788C32.7268 25.7788 32.4442 25.6928 32.1861 25.5085C31.9404 25.3303 31.8175 25.0416 31.8175 24.6484V1.35161C31.8175 0.909269 31.9404 0.589799 32.1861 0.393201C32.4442 0.184317 32.7268 0.0737305 33.0217 0.0737305C33.3166 0.0737305 33.593 0.184317 33.8572 0.393201C34.1337 0.589799 34.275 0.909269 34.275 1.35161V15.5066H34.4716C35.2887 15.5066 36.0259 15.3592 36.6833 15.0643C37.3345 14.7571 37.8137 14.2656 38.1086 13.5898L40.3203 8.87146C40.5661 8.33082 40.9101 8.03592 41.3525 7.98677C41.7948 7.93762 42.1634 8.0605 42.4583 8.35539C42.7655 8.65029 42.8331 9.05577 42.6549 9.55955L40.2958 14.6465C40.0992 15.009 39.7858 15.4329 39.3619 15.9244C38.9319 16.4036 38.4035 16.6801 37.7646 16.7599C38.4527 16.8582 38.9933 17.1408 39.3865 17.5955C39.792 18.0562 40.0992 18.4802 40.2958 18.8734C40.6521 19.7089 40.9654 20.4093 41.2296 20.9622C41.5061 21.5028 41.758 22.0189 41.9914 22.5104C42.2187 22.9896 42.4583 23.5303 42.7041 24.1323C42.9498 24.6423 42.9253 25.0539 42.6304 25.3611C42.3355 25.656 41.973 25.785 41.5491 25.7543C41.119 25.7358 40.7995 25.5208 40.5907 25.0907C40.2098 24.2429 39.8043 23.3644 39.3619 22.4613C38.9319 21.5643 38.5141 20.6919 38.1086 19.8563C37.8137 19.2051 37.3284 18.7198 36.6587 18.4064C35.9829 18.0808 35.258 17.9149 34.4716 17.9149H34.275Z" fill="white"/>
<path d="M58.4521 24.6484C58.4521 25.0416 58.3292 25.3303 58.0835 25.5085C57.85 25.6928 57.5797 25.7788 57.2725 25.7788C56.9776 25.7788 56.695 25.6805 56.437 25.4839C56.1912 25.275 56.0683 24.9924 56.0683 24.6484V13.7618C56.0683 12.8464 55.7366 12.0662 55.0854 11.4272C54.4464 10.7883 53.6723 10.4688 52.7753 10.4688C51.9029 10.4688 51.1534 10.7883 50.5145 11.4272C49.8878 12.0662 49.5806 12.8464 49.5806 13.7618V24.6484C49.5806 25.0416 49.4455 25.3365 49.1874 25.5331C48.9233 25.7112 48.6345 25.8034 48.3273 25.8034C48.0324 25.8034 47.7498 25.7112 47.4918 25.5331C47.246 25.3365 47.1232 25.0416 47.1232 24.6484V13.7618C47.1232 12.7481 47.3812 11.8081 47.9096 10.9357C48.4318 10.0695 49.1199 9.37523 49.9738 8.84688C50.8401 8.32466 51.7739 8.06049 52.7753 8.06049C53.8075 8.06049 54.7475 8.32466 55.6014 8.84688C56.4677 9.37523 57.1558 10.0695 57.6657 10.9357C58.1879 11.8081 58.4521 12.7481 58.4521 13.7618V24.6484Z" fill="white"/>
<path d="M75.0369 20.2741C75.0369 21.294 74.7727 22.234 74.2505 23.1002C73.7406 23.9726 73.0525 24.673 72.1863 25.2136C71.3323 25.7358 70.3923 26 69.3602 26C68.3403 26 67.4003 25.7358 66.5341 25.2136C65.6617 24.673 64.9613 23.9726 64.4207 23.1002C63.8923 22.234 63.6343 21.294 63.6343 20.2741V13.6635C63.6343 12.6683 63.8923 11.7344 64.4207 10.862C64.9613 9.99577 65.6617 9.30154 66.5341 8.77318C67.4003 8.23254 68.3403 7.96222 69.3602 7.96222C70.3923 7.96222 71.3323 8.23254 72.1863 8.77318C73.0525 9.30154 73.7406 9.99577 74.2505 10.862C74.7727 11.7344 75.0369 12.6683 75.0369 13.6635V20.2741ZM72.6286 13.6635C72.6286 12.7666 72.2907 11.9925 71.621 11.3535C70.9637 10.7023 70.208 10.3705 69.3602 10.3705C68.4571 10.3705 67.6891 10.7023 67.0502 11.3535C66.4112 11.9925 66.0917 12.7666 66.0917 13.6635V20.2741C66.0917 20.8824 66.2515 21.4414 66.5832 21.9452C66.9089 22.4367 67.3205 22.8422 67.812 23.1494C68.3158 23.4443 68.8318 23.5917 69.3602 23.5917C69.9008 23.5917 70.4169 23.4443 70.9084 23.1494C71.4122 22.8422 71.8238 22.4367 72.1371 21.9452C72.4627 21.4414 72.6286 20.8824 72.6286 20.2741V13.6635Z" fill="white"/>
<path d="M82.7364 9.92817C82.7364 12.4839 82.7426 14.9414 82.761 17.3006C82.7917 19.6597 82.8102 22.1111 82.8102 24.6484C82.8102 25.0109 82.675 25.3058 82.417 25.5331C82.1712 25.742 81.8763 25.8526 81.5323 25.8526C81.2374 25.8526 80.9548 25.7543 80.6967 25.5577C80.451 25.3488 80.3281 25.0416 80.3281 24.6484V1.30246C80.3281 0.829395 80.451 0.491493 80.6967 0.294896C80.9425 0.0982987 81.1944 0 81.4586 0C81.7166 0 81.9746 0.0921554 82.2204 0.270321C82.4661 0.436201 82.6136 0.638941 82.6627 0.884688C83.6457 3.24386 84.5673 5.59074 85.4397 7.91304C86.3243 10.2231 87.2336 12.5699 88.1674 14.9414L93.5739 0.761815C93.7029 0.565217 93.8995 0.393195 94.1637 0.245747C94.4401 0.0982987 94.692 0.0245747 94.9255 0.0245747C95.2019 0.0245747 95.4538 0.122873 95.6873 0.319471C95.933 0.516068 96.0559 0.847825 96.0559 1.30246V24.6484C96.0559 25.0907 95.9208 25.4225 95.6627 25.6314C95.3985 25.828 95.1221 25.9263 94.8272 25.9263C94.5139 25.9263 94.2251 25.828 93.9671 25.6314C93.7029 25.4225 93.5739 25.0907 93.5739 24.6484V10.0019L94.1637 5.84877H93.8442L92.7383 9.4121L89.347 17.9149V17.8904C89.1996 18.3327 88.96 18.603 88.6344 18.7013C88.321 18.7996 88.02 18.7873 87.7251 18.6522C87.4425 18.5047 87.2397 18.3081 87.1107 18.0624C86.4349 16.4405 85.839 14.966 85.3168 13.6389C84.8069 12.3119 84.2416 10.8989 83.6211 9.38752L82.4415 5.57845H82.1221L82.7364 9.92817Z" fill="white"/>
<path d="M106.346 23.5179C107.262 23.5179 108.03 23.2107 108.656 22.5841C109.277 21.9451 109.59 21.1772 109.59 20.274V13.7618C109.59 12.9139 109.271 12.1767 108.632 11.55C108.005 10.9111 107.243 10.5916 106.346 10.5916C105.953 10.5916 105.584 10.6776 105.24 10.8374C104.896 10.9848 104.552 11.1814 104.208 11.4272C103.797 11.7221 103.41 11.7589 103.053 11.5255C102.709 11.2982 102.494 10.9725 102.414 10.5425C102.328 10.1186 102.47 9.76838 102.832 9.48577C103.876 8.63794 105.05 8.20789 106.346 8.20789C107.329 8.20789 108.245 8.45363 109.099 8.94513C109.946 9.43662 110.635 10.1001 111.163 10.9357C111.685 11.7712 111.949 12.7173 111.949 13.7618V20.274C111.949 21.2939 111.71 22.2339 111.237 23.1001C110.757 23.9725 110.094 24.6668 109.246 25.189C108.392 25.6989 107.428 25.9508 106.346 25.9508C105.314 25.9508 104.38 25.705 103.545 25.2136C102.709 24.7098 102.033 24.0278 101.53 23.1739C101.038 22.326 100.792 21.3922 100.792 20.3723C100.792 19.3095 101.05 18.3572 101.554 17.5217C102.058 16.6739 102.74 16.0103 103.594 15.5311C104.442 15.0581 105.363 14.8185 106.346 14.8185H108.632V17.2022H106.346C105.511 17.2022 104.78 17.5094 104.159 18.1115C103.532 18.7013 103.225 19.4569 103.225 20.3723C103.225 21.257 103.526 22.0066 104.135 22.6086C104.755 23.2169 105.492 23.5179 106.346 23.5179Z" fill="white"/>
<path d="M119.57 24.7467C119.57 25.1399 119.435 25.4287 119.177 25.6068C118.913 25.785 118.643 25.8772 118.366 25.8772C118.071 25.8772 117.783 25.785 117.506 25.6068C117.242 25.4287 117.113 25.1399 117.113 24.7467V13.6881C117.113 12.6928 117.359 11.759 117.85 10.8866C118.354 10.0019 119.036 9.30154 119.89 8.77318C120.756 8.23254 121.715 7.96222 122.765 7.96222C123.042 7.96222 123.257 7.96222 123.404 7.96222C123.564 7.96222 123.748 7.98679 123.945 8.03594C124.289 8.10352 124.541 8.25097 124.706 8.47829C124.866 8.69332 124.952 8.93292 124.952 9.19095C124.952 9.52271 124.811 9.82989 124.534 10.1248C124.252 10.4074 123.859 10.5118 123.355 10.4443C123.109 10.3951 122.913 10.3705 122.765 10.3705C121.862 10.3705 121.1 10.7023 120.48 11.3535C119.871 11.9925 119.57 12.7727 119.57 13.6881V24.7467Z" fill="white"/>
<path d="M133.94 8.20791C134.333 8.20791 134.615 8.34307 134.8 8.60111C134.996 8.84685 135.095 9.11717 135.095 9.41207C135.095 9.70697 134.996 9.98957 134.8 10.2476C134.615 10.4934 134.333 10.6162 133.94 10.6162H131.064V20.0775C131.064 21.0297 131.396 21.8346 132.072 22.4858C132.76 23.1247 133.577 23.4442 134.529 23.4442C134.923 23.4442 135.205 23.5794 135.39 23.8374C135.568 24.0831 135.66 24.3535 135.66 24.6484C135.66 24.9617 135.568 25.232 135.39 25.4593C135.205 25.6928 134.923 25.8034 134.529 25.8034C133.411 25.8034 132.404 25.5576 131.507 25.0661C130.622 24.5746 129.922 23.8988 129.418 23.0264C128.908 22.1602 128.656 21.1772 128.656 20.0775V1.5236C128.656 1.11812 128.779 0.823223 129.025 0.638913C129.27 0.460747 129.547 0.368591 129.86 0.368591C130.155 0.368591 130.426 0.460747 130.671 0.638913C130.929 0.823223 131.064 1.11812 131.064 1.5236V8.20791H133.94Z" fill="white"/>
</svg>
